{"title":"Barricade.2012.BDRip.XVID.AC3.HQ.Hive-CM8","uid":7759318,"size":1721344600,"categoryP":"video","categoryS":"movies","magnet":"?xt=urn:btih:845eea3296f82010be46854b1c92726d5b76f4f4&amp;dn=Barricade.2012.BDRip.XVID.AC3.HQ.Hive-CM8&amp;tr=udp%3A%2F%2Ftracker.openbittorrent.com%3A80&amp;tr=udp%3A%2F%2Fopen.demonii.com%3A1337&amp;tr=udp%3A%2F%2Ftracker.coppersurfer.tk%3A6969&amp;tr=udp%3A%2F%2Fexodus.desync.com%3A6969","seeders":1,"leechers":0,"uploader":"Acesn8s","files":5,"time":1351184386,"description":"Barricade.2012.BDRip.XVID.AC3.HQ.Hive-CM8 Thx Hive\n\nSource: Bluray\nVideo: 720x384 @bitrate 1700 2pass\nAudio: English DTS to AC3 5.1 @448\nSubs: Yes, English in srt /subs\nSample: Yes, included &lt;a href=&quot;\nhttp://www.imdb.com/title/tt1861279/&quot; rel=&quot;nofollow&quot; target=&quot;_NEW&quot;&gt;\nhttp://www.imdb.com/title/tt1861279/&lt;/a&gt;\n\nGeneral\nComplete name: Barricade.2012.BDRip.XVID.AC3.HQ.Hive-CM8.avi\nFormat: AVI\nFormat/Info: Audio Video Interleave\nFile size: 1.58 GiB\nDuration: 1h 21mn\nOverall bit rate: 2 773 Kbps\nWriting application: Nandub v1.0rc2\nWriting library: Nandub build 1853/release\n\nVideo\nID: 0\nFormat: MPEG-4 Visual\nFormat profile: Advanced Simple@L5\nFormat settings, BVOP: 1\nFormat settings, QPel: Yes\nFormat settings, GMC: No warppoints\nFormat settings, Matrix: Default (H.263)\nMuxing mode: Packed bitstream\nCodec ID: XVID\nCodec ID/Hint: XviD\nDuration: 1h 21mn\nBit rate: 2 316 Kbps\nWidth: 720 pixels\nHeight: 384 pixels\nDisplay aspect ratio: 1.85:1\nFrame rate: 23.976 fps\nColor space: YUV\nChroma subsampling: 4:2:0\nBit depth: 8 bits\nScan type: Progressive\nCompression mode: Lossy\nBits/(Pixel*Frame): 0.349\nStream size: 1.32 GiB (84%)\nWriting library: XviD 1.2.1 (UTC 2008-12-04)\n\nAudio\nID: 1\nFormat: AC-3\nFormat/Info: Audio Coding 3\nMode extension: CM (complete main)\nFormat settings, Endianness: Big\nCodec ID: 2000\nDuration: 1h 21mn\nBit rate mode: Constant\nBit rate: 448 Kbps\nChannel(s): 6 channels\nChannel positions: Front: L C R, Side: L R, LFE\nSampling rate: 48.0 KHz\nBit depth: 16 bits\nCompression mode: Lossy\nStream size: 261 MiB (16%)\nAlignment: Split accross interleaves\nInterleave, duration: 42 ms (1.00 video frame)\nInterleave, preload duration: 500 ms\n\nPlot:\nA father's quiet retreat to the woods with his\ntwo children turns into a fight for survival\n\nCast:\nEric McCormack ... Terrance Shade\nJody Thompson ... Leah Shade\nDalias Blake ... Deputy Dan \n &lt;a href=&quot;\nhttp://img28.imageshack.us/img28/9982/babaa.png&quot; rel=&quot;nofollow&quot; target=&quot;_NEW&quot;&gt;\nhttp://img28.imageshack.us/img28/9982/babaa.png&lt;/a&gt; &lt;a href=&quot;\nhttp://img836.imageshack.us/img836/3075/bababaf.png&quot; rel=&quot;nofollow&quot; target=&quot;_NEW&quot;&gt;\nhttp://img836.imageshack.us/img836/3075/bababaf.png&lt;/a&gt; &lt;a href=&quot;\nhttp://img69.imageshack.us/img69/765/babababah.png&quot; rel=&quot;nofollow&quot; target=&quot;_NEW&quot;&gt;\nhttp://img69.imageshack.us/img69/765/babababah.png&lt;/a&gt; &lt;a href=&quot;\nhttp://img59.imageshack.us/img59/504/24793041.png&quot; rel=&quot;nofollow&quot; target=&quot;_NEW&quot;&gt;\nhttp://img59.imageshack.us/img59/504/24793041.png&lt;/a&gt;\n","torrent":{"xt":"urn:btih:845eea3296f82010be46854b1c92726d5b76f4f4","amp;dn":"Barricade.2012.BDRip.XVID.AC3.HQ.Hive-CM8","amp;tr":["udp%3A%2F%2Ftracker.openbittorrent.com%3A80","udp%3A%2F%2Fopen.demonii.com%3A1337","udp%3A%2F%2Ftracker.coppersurfer.tk%3A6969","udp%3A%2F%2Fexodus.desync.com%3A6969"],"infoHash":"845eea3296f82010be46854b1c92726d5b76f4f4","infoHashBuffer":{"type":"Buffer","data":[132,94,234,50,150,248,32,16,190,70,133,75,28,146,114,109,91,118,244,244]},"announce":[],"urlList":[]}}